{
  "accessors": [
    {
      "bufferView": 2,
      "componentType": 5126,
      "count": 65532,
      "max": [
        89.46492767333984,
        219.56243896484375,
        291.1679992675781
      ],
      "min": [
        -58.475894927978516,
        19.414411544799805,
        255.33409118652344
      ],
      "type": "VEC3"
    },
    {
      "bufferView": 2,
      "byteOffset": 786384,
      "componentType": 5126,
      "count": 65532,
      "max": [
        0.999830424785614,
        0.9999793767929077,
        0.9999996423721313
      ],
      "min": [
        -0.9999971389770508,
        -0.9999781250953674,
        -0.9999954700469971
      ],
      "type": "VEC3"
    },
    {
      "bufferView": 3,
      "componentType": 5126,
      "count": 65532,
      "max": [
        0.9176470637321472,
        0.929411768913269,
        0.9450980424880981,
        0.0
      ],
      "min": [
        0.01568627543747425,
        0.019607843831181526,
        0.019607843831181526,
        0.0
      ],
      "type": "VEC4"
    },
    {
      "bufferView": 1,
      "componentType": 5126,
      "count": 65532,
      "max": [
        0.9990066885948181,
        0.9999567270278931
      ],
      "min": [
        0.0001754258992150426,
        8.815526962280273e-05
      ],
      "type": "VEC2"
    },
    {
      "bufferView": 0,
      "componentType": 5125,
      "count": 355110,
      "type": "SCALAR"
    },
    {
      "bufferView": 2,
      "byteOffset": 1572768,
      "componentType": 5126,
      "count": 65532,
      "max": [
        195.63401794433594,
        199.3997802734375,
        293.7933654785156
      ],
      "min": [
        44.775657653808594,
        11.204607963562012,
        267.08563232421875
      ],
      "type": "VEC3"
    },
    {
      "bufferView": 2,
      "byteOffset": 2359152,
      "componentType": 5126,
      "count": 65532,
      "max": [
        0.9999886155128479,
        0.9999973773956299,
        0.9999977946281433
      ],
      "min": [
        -0.9999657273292542,
        -0.9999989867210388,
        -0.9992796778678894
      ],
      "type": "VEC3"
    },
    {
      "bufferView": 3,
      "byteOffset": 1048512,
      "componentType": 5126,
      "count": 65532,
      "max": [
        0.9725490212440491,
        0.9725490212440491,
        0.9764705896377563,
        0.0
      ],
      "min": [
        0.01568627543747425,
        0.01568627543747425,
        0.007843137718737125,
        0.0
      ],
      "type": "VEC4"
    },
    {
      "bufferView": 1,
      "byteOffset": 524256,
      "componentType": 5126,
      "count": 65532,
      "max": [
        0.9996347427368164,
        0.9989317655563354
      ],
      "min": [
        0.0001718282583169639,
        1.3649463653564453e-05
      ],
      "type": "VEC2"
    },
    {
      "bufferView": 0,
      "byteOffset": 1420440,
      "componentType": 5125,
      "count": 348687,
      "type": "SCALAR"
    },
    {
      "bufferView": 2,
      "byteOffset": 3145536,
      "componentType": 5126,
      "count": 65532,
      "max": [
        210.57594299316406,
        216.77340698242188,
        299.0047302246094
      ],
      "min": [
        -60.70750045776367,
        6.901834011077881,
        260.24249267578125
      ],
      "type": "VEC3"
    },
    {
      "bufferView": 2,
      "byteOffset": 3931920,
      "componentType": 5126,
      "count": 65532,
      "max": [
        0.9999803304672241,
        0.9999768137931824,
        0.9999988079071045
      ],
      "min": [
        -0.9999909400939941,
        -0.9999547600746155,
        -0.9995434880256653
      ],
      "type": "VEC3"
    },
    {
      "bufferView": 3,
      "byteOffset": 2097024,
      "componentType": 5126,
      "count": 65532,
      "max": [
        0.9372549057006836,
        0.9450980424880981,
        0.9529411792755127,
        0.0
      ],
      "min": [
        0.019607843831181526,
        0.019607843831181526,
        0.0235294122248888,
        0.0
      ],
      "type": "VEC4"
    },
    {
      "bufferView": 1,
      "byteOffset": 1048512,
      "componentType": 5126,
      "count": 65532,
      "max": [
        0.9989034533500671,
        0.9998804330825806
      ],
      "min": [
        7.903261575847864e-05,
        3.159046173095703e-06
      ],
      "type": "VEC2"
    },
    {
      "bufferView": 0,
      "byteOffset": 2815188,
      "componentType": 5125,
      "count": 351321,
      "type": "SCALAR"
    },
    {
      "bufferView": 2,
      "byteOffset": 4718304,
      "componentType": 5126,
      "count": 65532,
      "max": [
        195.2536163330078,
        218.211181640625,
        288.0093994140625
      ],
      "min": [
        -60.70750045776367,
        -32.427207946777344,
        260.1191101074219
      ],
      "type": "VEC3"
    },
    {
      "bufferView": 2,
      "byteOffset": 5504688,
      "componentType": 5126,
      "count": 65532,
      "max": [
        0.9999803304672241,
        0.9999358057975769,
        1.0
      ],
      "min": [
        -0.9999902844429016,
        -0.9999409914016724,
        -0.9999991059303284
      ],
      "type": "VEC3"
    },
    {
      "bufferView": 3,
      "byteOffset": 3145536,
      "componentType": 5126,
      "count": 65532,
      "max": [
        0.9764705896377563,
        0.9803921580314636,
        0.9882352948188782,
        0.0
      ],
      "min": [
        0.0313725508749485,
        0.0313725508749485,
        0.0117647061124444,
        0.0
      ],
      "type": "VEC4"
    },
    {
      "bufferView": 1,
      "byteOffset": 1572768,
      "componentType": 5126,
      "count": 65532,
      "max": [
        0.9987307190895081,
        0.9999754428863525
      ],
      "min": [
        3.758631646633148e-05,
        0.00019222497940063477
      ],
      "type": "VEC2"
    },
    {
      "bufferView": 0,
      "byteOffset": 4220472,
      "componentType": 5125,
      "count": 343365,
      "type": "SCALAR"
    },
    {
      "bufferView": 2,
      "byteOffset": 6291072,
      "componentType": 5126,
      "count": 65532,
      "max": [
        175.5681915283203,
        147.34878540039063,
        300.73345947265625
      ],
      "min": [
        -25.46404266357422,
        -10.618122100830078,
        266.43646240234375
      ],
      "type": "VEC3"
    },
    {
      "bufferView": 2,
      "byteOffset": 7077456,
      "componentType": 5126,
      "count": 65532,
      "max": [
        0.9999411702156067,
        0.9999862313270569,
        0.9999961256980896
      ],
      "min": [
        -0.9999492168426514,
        -0.9999788403511047,
        -1.0
      ],
      "type": "VEC3"
    },
    {
      "bufferView": 3,
      "byteOffset": 4194048,
      "componentType": 5126,
      "count": 65532,
      "max": [
        0.9490196108818054,
        0.9607843160629272,
        0.9725490212440491,
        0.0
      ],
      "min": [
        0.007843137718737125,
        0.019607843831181526,
        0.003921568859368563,
        0.0
      ],
      "type": "VEC4"
    },
    {
      "bufferView": 1,
      "byteOffset": 2097024,
      "componentType": 5126,
      "count": 65532,
      "max": [
        0.9989964365959167,
        0.9997572302818298
      ],
      "min": [
        0.0002984186867251992,
        7.987022399902344e-06
      ],
      "type": "VEC2"
    },
    {
      "bufferView": 0,
      "byteOffset": 5593932,
      "componentType": 5125,
      "count": 337206,
      "type": "SCALAR"
    },
    {
      "bufferView": 2,
      "byteOffset": 7863840,
      "componentType": 5126,
      "count": 32487,
      "max": [
        167.58668518066406,
        193.57276916503906,
        300.7215576171875
      ],
      "min": [
        -14.755814552307129,
        19.10930061340332,
        279.7300109863281
      ],
      "type": "VEC3"
    },
    {
      "bufferView": 2,
      "byteOffset": 8253684,
      "componentType": 5126,
      "count": 32487,
      "max": [
        0.9999582767486572,
        0.9998786449432373,
        0.9999963045120239
      ],
      "min": [
        -0.9999599456787109,
        -0.999977707862854,
        -0.9985418319702148
      ],
      "type": "VEC3"
    },
    {
      "bufferView": 3,
      "byteOffset": 5242560,
      "componentType": 5126,
      "count": 32487,
      "max": [
        0.9764705896377563,
        0.9725490212440491,
        0.9725490212440491,
        0.0
      ],
      "min": [
        0.0313725508749485,
        0.03529411926865578,
        0.03529411926865578,
        0.0
      ],
      "type": "VEC4"
    },
    {
      "bufferView": 1,
      "byteOffset": 2621280,
      "componentType": 5126,
      "count": 32487,
      "max": [
        0.9997290968894958,
        0.9999498128890991
      ],
      "min": [
        0.0012361259432509542,
        0.0001448988914489746
      ],
      "type": "VEC2"
    },
    {
      "bufferView": 0,
      "byteOffset": 6942756,
      "componentType": 5125,
      "count": 153774,
      "type": "SCALAR"
    }
  ],
  "asset": {
    "extras": {
      "author": "Olaf.Rodowald (https://sketchfab.com/Olaf.Rodowald)",
      "license": "CC-BY-4.0 (http://creativecommons.org/licenses/by/4.0/)",
      "source": "https://sketchfab.com/3d-models/monteriggioni-5a0bcecb63524854b231feba34c6fbf9",
      "title": "Monteriggioni"
    },
    "generator": "Sketchfab-16.14.0",
    "version": "2.0"
  },
  "bufferViews": [
    {
      "buffer": 0,
      "byteLength": 7557852,
      "name": "floatBufferViews",
      "target": 34963
    },
    {
      "buffer": 0,
      "byteLength": 2881176,
      "byteOffset": 7557852,
      "byteStride": 8,
      "name": "floatBufferViews",
      "target": 34962
    },
    {
      "buffer": 0,
      "byteLength": 8643528,
      "byteOffset": 10439028,
      "byteStride": 12,
      "name": "floatBufferViews",
      "target": 34962
    },
    {
      "buffer": 0,
      "byteLength": 5762352,
      "byteOffset": 19082556,
      "byteStride": 16,
      "name": "floatBufferViews",
      "target": 34962
    }
  ],
  "buffers": [
    {
      "byteLength": 24844908,
      "uri": "scene.bin"
    }
  ],
  "extensionsUsed": [
    "KHR_materials_unlit"
  ],
  "images": [
    {
      "uri": "textures/material_0_baseColor.jpeg"
    }
  ],
  "materials": [
    {
      "extensions": {
        "KHR_materials_unlit": {}
      },
      "name": "material_0",
      "pbrMetallicRoughness": {
        "baseColorTexture": {
          "index": 0
        },
        "metallicFactor": 0.0
      }
    }
  ],
  "meshes": [
    {
      "name": "Object_0",
      "primitives": [
        {
          "attributes": {
            "COLOR_0": 2,
            "NORMAL": 1,
            "POSITION": 0,
            "TEXCOORD_0": 3
          },
          "indices": 4,
          "material": 0,
          "mode": 4
        }
      ]
    },
    {
      "name": "Object_1",
      "primitives": [
        {
          "attributes": {
            "COLOR_0": 7,
            "NORMAL": 6,
            "POSITION": 5,
            "TEXCOORD_0": 8
          },
          "indices": 9,
          "material": 0,
          "mode": 4
        }
      ]
    },
    {
      "name": "Object_2",
      "primitives": [
        {
          "attributes": {
            "COLOR_0": 12,
            "NORMAL": 11,
            "POSITION": 10,
            "TEXCOORD_0": 13
          },
          "indices": 14,
          "material": 0,
          "mode": 4
        }
      ]
    },
    {
      "name": "Object_3",
      "primitives": [
        {
          "attributes": {
            "COLOR_0": 17,
            "NORMAL": 16,
            "POSITION": 15,
            "TEXCOORD_0": 18
          },
          "indices": 19,
          "material": 0,
          "mode": 4
        }
      ]
    },
    {
      "name": "Object_4",
      "primitives": [
        {
          "attributes": {
            "COLOR_0": 22,
            "NORMAL": 21,
            "POSITION": 20,
            "TEXCOORD_0": 23
          },
          "indices": 24,
          "material": 0,
          "mode": 4
        }
      ]
    },
    {
      "name": "Object_5",
      "primitives": [
        {
          "attributes": {
            "COLOR_0": 27,
            "NORMAL": 26,
            "POSITION": 25,
            "TEXCOORD_0": 28
          },
          "indices": 29,
          "material": 0,
          "mode": 4
        }
      ]
    }
  ],
  "nodes": [
    {
      "children": [
        1
      ],
      "matrix": [
        1.0,
        2.2204460492503123e-16,
        2.8327693431939995e-16,
        0.0,
        2.220446049250313e-16,
        -1.0,
        -6.661338147750939e-16,
        0.0,
        2.832769343193999e-16,
        6.661338147750939e-16,
        -1.0,
        0.0,
        0.0,
        0.0,
        0.0,
        1.0
      ],
      "name": "Sketchfab_model"
    },
    {
      "children": [
        2
      ],
      "name": "root"
    },
    {
      "children": [
        3
      ],
      "matrix": [
        1.0,
        0.0,
        0.0,
        0.0,
        0.0,
        2.220446049250313e-16,
        1.0,
        0.0,
        0.0,
        -1.0,
        2.220446049250313e-16,
        0.0,
        0.0,
        0.0,
        0.0,
        1.0
      ],
      "name": "GLTF_SceneRootNode"
    },
    {
      "children": [
        4,
        5,
        6,
        7,
        8,
        9
      ],
      "name": "_0"
    },
    {
      "mesh": 0,
      "name": "Object_4"
    },
    {
      "mesh": 1,
      "name": "Object_5"
    },
    {
      "mesh": 2,
      "name": "Object_6"
    },
    {
      "mesh": 3,
      "name": "Object_7"
    },
    {
      "mesh": 4,
      "name": "Object_8"
    },
    {
      "mesh": 5,
      "name": "Object_9"
    }
  ],
  "samplers": [
    {
      "magFilter": 9729,
      "minFilter": 9729,
      "wrapS": 10497,
      "wrapT": 10497
    }
  ],
  "scene": 0,
  "scenes": [
    {
      "name": "Sketchfab_Scene",
      "nodes": [
        0
      ]
    }
  ],
  "textures": [
    {
      "sampler": 0,
      "source": 0
    }
  ]
}
